<?xml version="1.0" encoding="UTF-8" standalone="no"?>
<!DOCTYPE svg PUBLIC "-//W3C//DTD SVG 20010904//EN"
              "http://www.w3.org/TR/2001/REC-SVG-20010904/DTD/svg10.dtd">

<svg xmlns="http://www.w3.org/2000/svg"
     width="17.7778in" height="5.55556in"
     viewBox="0 0 1600 500">
  <path id="Selection"
        fill="black" stroke="black" stroke-width="1"
        d="M 939.00,45.00
           C 939.00,45.00 935.16,82.00 935.16,82.00
             935.16,82.00 927.17,159.00 927.17,159.00
             927.17,159.00 922.00,209.00 922.00,209.00
             922.00,209.00 973.00,180.15 973.00,180.15
             973.00,180.15 992.00,170.00 992.00,170.00
             992.00,170.00 983.02,200.00 983.02,200.00
             983.02,200.00 972.72,234.00 972.72,234.00
             972.72,234.00 931.02,371.00 931.02,371.00
             931.02,371.00 910.72,438.00 910.72,438.00
             910.72,438.00 900.00,471.00 900.00,471.00
             900.00,471.00 902.85,445.00 902.85,445.00
             902.85,445.00 909.72,393.00 909.72,393.00
             909.72,393.00 918.72,325.00 918.72,325.00
             918.72,325.00 924.00,286.00 924.00,286.00
             924.00,286.00 883.00,308.31 883.00,308.31
             883.00,308.31 852.00,324.00 852.00,324.00
             852.00,324.00 860.28,296.00 860.28,296.00
             860.28,296.00 876.28,242.00 876.28,242.00
             876.28,242.00 917.42,103.00 917.42,103.00
             917.42,103.00 931.72,55.00 931.72,55.00
             931.72,55.00 939.00,29.00 939.00,29.00
             941.02,34.09 939.46,39.72 939.00,45.00 Z
           M 1282.00,107.59
           C 1329.59,115.24 1371.02,146.51 1390.13,191.00
             1395.90,204.43 1400.98,224.38 1401.00,239.00
             1401.00,239.00 1401.00,257.00 1401.00,257.00
             1400.98,268.01 1398.29,280.49 1395.02,291.00
             1381.83,333.44 1351.70,366.12 1310.00,381.94
             1285.61,391.19 1270.42,391.29 1245.00,391.00
             1231.77,390.84 1211.21,385.08 1199.00,379.85
             1184.68,373.71 1170.61,365.28 1159.00,354.83
             1111.85,312.39 1100.19,242.99 1126.31,186.00
             1143.23,149.07 1177.54,122.45 1216.00,111.04
             1227.05,107.76 1238.66,107.04 1250.00,105.42
             1257.82,104.47 1273.91,106.29 1282.00,107.59 Z
           M 443.00,109.59
           C 490.59,117.24 532.02,148.51 551.13,193.00
             556.90,206.43 561.98,226.38 562.00,241.00
             562.00,241.00 562.00,259.00 562.00,259.00
             561.98,270.01 559.29,282.49 556.02,293.00
             542.83,335.44 512.70,368.12 471.00,383.94
             446.61,393.19 431.42,393.29 406.00,393.00
             392.77,392.84 372.21,387.08 360.00,381.85
             345.68,375.71 331.61,367.28 320.00,356.83
             272.85,314.39 261.19,244.99 287.31,188.00
             304.23,151.07 338.54,124.45 377.00,113.04
             388.05,109.76 399.66,109.04 411.00,107.42
             418.82,106.47 434.91,108.29 443.00,109.59 Z
           M 1535.00,391.00
           C 1519.94,390.98 1505.28,384.89 1492.00,378.25
             1475.71,370.10 1467.83,363.83 1455.00,351.00
             1435.88,331.88 1425.15,314.38 1418.88,288.00
             1414.17,268.13 1414.97,256.88 1415.00,237.00
             1415.02,227.32 1417.33,216.31 1420.00,207.00
             1430.46,170.59 1454.94,140.40 1489.00,123.37
             1504.16,115.79 1528.03,109.03 1545.00,109.00
             1545.00,109.00 1556.00,109.00 1556.00,109.00
             1556.00,109.00 1556.00,125.00 1556.00,125.00
             1555.97,126.62 1556.04,129.06 1554.98,130.40
             1553.63,132.10 1550.95,131.96 1549.00,132.00
             1527.23,132.40 1508.02,138.72 1490.00,151.03
             1468.06,166.01 1448.82,190.20 1441.43,216.00
             1436.88,231.85 1436.81,240.85 1437.00,257.00
             1437.45,295.13 1462.73,333.86 1495.00,352.99
             1507.03,360.12 1520.19,365.24 1534.00,367.57
             1534.00,367.57 1552.85,369.31 1552.85,369.31
             1556.46,370.38 1555.98,373.94 1556.00,377.00
             1556.00,377.00 1556.00,391.00 1556.00,391.00
             1556.00,391.00 1535.00,391.00 1535.00,391.00 Z
           M 1012.00,370.00
           C 1033.95,369.90 1060.99,367.96 1069.25,343.00
             1071.05,337.57 1071.01,334.57 1071.00,329.00
             1070.98,311.97 1063.72,295.98 1056.25,281.00
             1056.25,281.00 1028.14,229.00 1028.14,229.00
             1017.89,210.53 1007.03,188.57 1007.00,167.00
             1006.98,156.97 1006.21,151.76 1009.70,142.00
             1017.76,119.44 1040.53,110.04 1063.00,110.00
             1063.00,110.00 1084.00,110.00 1084.00,110.00
             1084.00,110.00 1084.00,132.00 1084.00,132.00
             1072.95,132.00 1054.76,132.45 1045.00,137.38
             1021.23,149.37 1029.61,177.73 1037.45,197.00
             1049.69,227.08 1070.07,253.17 1082.85,283.00
             1088.56,296.34 1093.98,311.35 1094.00,326.00
             1094.00,326.00 1094.00,335.00 1094.00,335.00
             1093.60,368.56 1064.21,391.95 1032.00,392.00
             1032.00,392.00 999.00,392.00 999.00,392.00
             999.00,392.00 999.00,371.00 999.00,371.00
             999.00,371.00 1012.00,370.00 1012.00,370.00 Z
           M 34.00,378.00
           C 34.04,376.05 33.90,373.37 35.60,372.02
             37.28,370.69 41.84,371.01 44.00,371.00
             44.00,371.00 61.00,370.00 61.00,370.00
             79.01,369.91 98.13,362.50 104.25,344.00
             106.21,338.08 106.07,334.09 106.00,328.00
             105.83,313.57 98.96,297.85 92.74,285.00
             92.74,285.00 78.00,257.00 78.00,257.00
             78.00,257.00 65.78,235.00 65.78,235.00
             56.39,217.31 47.48,202.02 43.45,182.00
             41.63,172.96 41.90,166.11 42.00,157.00
             42.17,143.06 49.64,129.52 61.00,121.57
             65.85,118.18 71.35,115.76 77.00,114.04
             83.11,112.18 99.33,111.01 106.00,111.00
             106.00,111.00 119.00,111.00 119.00,111.00
             119.00,111.00 119.00,133.00 119.00,133.00
             107.95,133.00 89.76,133.45 80.00,138.38
             56.23,150.37 64.61,178.73 72.45,198.00
             84.69,228.08 105.07,254.17 117.85,284.00
             123.56,297.34 128.98,312.35 129.00,327.00
             129.00,327.00 129.00,336.00 129.00,336.00
             128.60,369.56 99.21,392.95 67.00,393.00
             67.00,393.00 34.00,393.00 34.00,393.00
             34.00,393.00 34.00,378.00 34.00,378.00 Z
           M 174.00,111.00
           C 174.00,111.00 174.00,181.00 174.00,181.00
             174.00,181.00 224.00,181.00 224.00,181.00
             224.00,181.00 224.00,111.00 224.00,111.00
             224.00,111.00 246.00,111.00 246.00,111.00
             246.00,111.00 246.00,393.00 246.00,393.00
             246.00,393.00 224.00,394.00 224.00,394.00
             224.00,394.00 224.00,202.00 224.00,202.00
             224.00,202.00 174.00,202.00 174.00,202.00
             174.00,202.00 174.00,393.00 174.00,393.00
             174.00,393.00 152.00,393.00 152.00,393.00
             152.00,393.00 152.00,202.00 152.00,202.00
             149.41,202.00 144.53,202.35 142.39,200.98
             138.04,198.20 135.24,185.96 135.00,181.00
             135.00,181.00 152.00,181.00 152.00,181.00
             152.00,181.00 152.00,111.00 152.00,111.00
             152.00,111.00 174.00,111.00 174.00,111.00 Z
           M 697.00,393.00
           C 684.75,392.85 669.12,386.36 658.00,381.30
             640.08,373.16 631.89,366.89 618.00,353.00
             600.14,335.14 589.36,318.54 582.88,294.00
             577.16,272.28 577.97,260.80 578.00,239.00
             578.02,229.32 580.33,218.31 583.00,209.00
             593.46,172.59 617.94,142.40 652.00,125.37
             672.73,115.00 696.00,111.00 719.00,111.00
             719.00,111.00 719.00,127.00 719.00,127.00
             718.97,128.62 719.04,131.06 717.98,132.40
             716.63,134.10 713.95,133.96 712.00,134.00
             690.23,134.40 671.02,140.72 653.00,153.03
             631.06,168.01 611.82,192.20 604.43,218.00
             599.88,233.85 599.81,242.85 600.00,259.00
             600.45,297.13 625.73,335.86 658.00,354.99
             670.03,362.12 683.19,367.24 697.00,369.57
             697.00,369.57 715.85,371.31 715.85,371.31
             719.46,372.38 718.98,375.94 719.00,379.00
             719.00,379.00 719.00,393.00 719.00,393.00
             719.00,393.00 697.00,393.00 697.00,393.00 Z
           M 761.00,111.00
           C 761.00,111.00 761.00,173.00 761.00,173.00
             761.00,173.00 800.08,127.00 800.08,127.00
             807.29,118.35 809.89,111.06 822.00,111.00
             822.00,111.00 843.00,111.00 843.00,111.00
             840.43,117.02 835.63,121.86 831.65,127.00
             831.65,127.00 801.25,163.00 801.25,163.00
             798.33,166.54 787.52,179.35 786.86,183.00
             786.23,186.44 790.25,198.29 791.59,202.00
             791.59,202.00 804.00,239.00 804.00,239.00
             804.00,239.00 837.34,338.00 837.34,338.00
             842.01,351.46 852.91,380.02 854.00,393.00
             854.00,393.00 838.00,393.00 838.00,393.00
             828.29,392.93 829.41,390.26 825.67,379.00
             825.67,379.00 812.67,340.00 812.67,340.00
             812.67,340.00 775.69,231.00 775.69,231.00
             775.69,231.00 761.00,188.00 761.00,188.00
             761.00,188.00 761.00,393.00 761.00,393.00
             761.00,393.00 740.00,393.00 740.00,393.00
             740.00,393.00 740.00,111.00 740.00,111.00
             740.00,111.00 761.00,111.00 761.00,111.00 Z
           M 1222.00,131.72
           C 1194.77,139.84 1171.78,156.40 1155.75,180.00
             1116.85,237.28 1132.55,316.65 1191.00,354.30
             1209.15,365.99 1230.55,372.12 1252.00,373.24
             1252.00,373.24 1264.00,373.24 1264.00,373.24
             1278.75,372.97 1293.49,369.07 1307.00,363.28
             1321.04,357.26 1333.89,348.38 1344.83,337.72
             1381.62,301.87 1390.49,239.52 1367.73,194.00
             1353.22,164.98 1327.76,143.16 1297.00,133.00
             1284.79,128.97 1264.73,125.10 1252.00,126.28
             1240.86,127.89 1233.13,128.40 1222.00,131.72 Z
           M 383.00,133.72
           C 355.77,141.84 332.78,158.40 316.75,182.00
             277.85,239.28 293.55,318.65 352.00,356.30
             370.15,367.99 391.55,374.12 413.00,375.24
             413.00,375.24 425.00,375.24 425.00,375.24
             439.58,374.97 454.64,371.00 468.00,365.28
             482.04,359.26 494.89,350.38 505.83,339.72
             542.62,303.87 551.49,241.52 528.73,196.00
             514.24,167.01 488.72,145.15 458.00,135.00
             445.79,130.97 425.73,127.10 413.00,128.28
             401.86,129.89 394.13,130.40 383.00,133.72 Z" />
</svg>
