<?xml version="1.0" encoding="UTF-8" standalone="no"?>
<!-- Created with Inkscape (http://www.inkscape.org/) -->

<svg
   xmlns:dc="http://purl.org/dc/elements/1.1/"
   xmlns:cc="http://creativecommons.org/ns#"
   xmlns:rdf="http://www.w3.org/1999/02/22-rdf-syntax-ns#"
   xmlns:svg="http://www.w3.org/2000/svg"
   xmlns="http://www.w3.org/2000/svg"
   xmlns:sodipodi="http://sodipodi.sourceforge.net/DTD/sodipodi-0.dtd"
   xmlns:inkscape="http://www.inkscape.org/namespaces/inkscape"
   width="1052.3622"
   height="744.09448"
   id="svg2"
   version="1.1"
   inkscape:version="0.48.5 r10040"
   sodipodi:docname="ShockSoc Logo.svg"
   inkscape:export-filename="C:\Users\Jack\Google Drive\ShockSoc\Images and logos\ShockSoc Logo.png"
   inkscape:export-xdpi="90"
   inkscape:export-ydpi="90">
  <defs
     id="defs4">
    <inkscape:perspective
       sodipodi:type="inkscape:persp3d"
       inkscape:vp_x="0 : 526.18109 : 1"
       inkscape:vp_y="0 : 1000 : 0"
       inkscape:vp_z="744.09448 : 526.18109 : 1"
       inkscape:persp3d-origin="372.04724 : 350.78739 : 1"
       id="perspective3825" />
  </defs>
  <sodipodi:namedview
     id="base"
     pagecolor="#000000"
     bordercolor="#7f7f7f"
     borderopacity="1"
     inkscape:pageopacity="0"
     inkscape:pageshadow="2"
     inkscape:zoom="0.78870185"
     inkscape:cx="483.12446"
     inkscape:cy="385.30417"
     inkscape:document-units="px"
     inkscape:current-layer="g3862"
     showgrid="false"
     inkscape:window-width="1920"
     inkscape:window-height="1017"
     inkscape:window-x="-8"
     inkscape:window-y="-8"
     inkscape:window-maximized="1"
     borderlayer="false" />
  <metadata
     id="metadata7">
    <rdf:RDF>
      <cc:Work
         rdf:about="">
        <dc:format>image/svg+xml</dc:format>
        <dc:type
           rdf:resource="http://purl.org/dc/dcmitype/StillImage" />
        <dc:title></dc:title>
      </cc:Work>
    </rdf:RDF>
  </metadata>
  <g
     inkscape:label="bolt original"
     id="g3857"
     inkscape:groupmode="layer"
     style="display:none"
     sodipodi:insensitive="true"
     transform="translate(0,-308.2677)">
    <path
       inkscape:connector-curvature="0"
       d="m 359.33134,658.09877 50.54123,-173.72892 -66.90542,65.28794 28.13,-5.47361 z m 24.06527,-250.6063 -50.54123,173.72892 66.90541,-65.28796 -28.13,5.47362 z"
       style="fill:#000000;fill-opacity:1;stroke:none"
       id="path3859" />
  </g>
  <g
     id="g3845"
     inkscape:groupmode="layer"
     inkscape:label="shocksoc original"
     style="display:none"
     sodipodi:insensitive="true"
     transform="translate(0,-308.2677)">
    <g
       id="g3847"
       style="font-size:144px;font-style:normal;font-variant:normal;font-weight:normal;font-stretch:normal;line-height:125%;letter-spacing:0px;word-spacing:0px;fill:#000000;fill-opacity:1;stroke:none;font-family:AR BONNIE;-inkscape-font-specification:AR BONNIE"
       transform="translate(166.95279,12.446352)" />
    <g
       id="g3849"
       style="font-size:144px;font-style:normal;font-variant:normal;font-weight:normal;font-stretch:normal;line-height:125%;letter-spacing:0px;word-spacing:0px;fill:#000000;fill-opacity:1;stroke:none;font-family:AR BONNIE;-inkscape-font-specification:AR BONNIE" />
    <g
       id="g3851"
       style="font-size:144px;font-style:normal;font-variant:normal;font-weight:normal;font-stretch:normal;line-height:125%;letter-spacing:0px;word-spacing:0px;fill:#000000;fill-opacity:1;stroke:none;font-family:AR BONNIE;-inkscape-font-specification:AR BONNIE" />
    <g
       id="g3853"
       style="font-size:144px;font-style:normal;font-variant:normal;font-weight:normal;font-stretch:normal;line-height:125%;letter-spacing:0px;word-spacing:0px;fill:#000000;fill-opacity:1;stroke:none;font-family:AR BONNIE;-inkscape-font-specification:AR BONNIE">
      <path
         d="m 426.05441,578.94208 c 0,-13.82221 4.58422,-25.26922 13.75269,-34.34107 9.16843,-9.07168 20.52022,-13.60757 34.05542,-13.60766 l 0,6.91259 c -11.42289,9e-5 -21.09451,3.91196 -29.01489,11.7356 -7.92043,7.8238 -11.88063,17.59064 -11.88062,29.30054 -1e-5,11.71292 3.93602,21.5054 11.80811,29.37744 7.87204,7.87208 17.56783,11.80811 29.0874,11.8081 l 0,6.9126 c -13.34184,0 -24.64529,-4.63183 -33.9104,-13.89551 -9.26515,-9.26364 -13.89771,-20.66451 -13.89771,-34.20263 z m -5.36368,-0.69696 c -10e-5,13.53519 -4.80038,25.10305 -14.40087,34.70361 -9.60067,9.60059 -21.16853,14.40088 -34.70362,14.40088 -13.53812,0 -25.15505,-4.70434 -34.85083,-14.11304 -9.69581,-9.40867 -14.5437,-20.92892 -14.5437,-34.56079 0,-14.11224 4.84789,-25.96794 14.5437,-35.56714 9.69578,-9.59903 21.59982,-14.39858 35.71216,-14.39868 13.44134,10e-5 24.84221,4.87216 34.20264,14.61621 9.36025,9.74422 14.04042,21.38385 14.04052,34.91895 z m -91.58642,-0.14502 c -10e-6,11.61624 4.12791,21.55227 12.38379,29.8081 8.25583,8.25587 18.24019,12.3838 29.95312,12.38379 11.61615,10e-6 21.57635,-4.05614 29.88062,-12.16845 8.30411,-8.11228 12.4562,-17.92819 12.4563,-29.44776 -1e-4,-12.28705 -4.17636,-22.51092 -12.52881,-30.67163 -8.35261,-8.16056 -18.62409,-12.24088 -30.81445,-12.24097 -11.32915,9e-5 -21.04984,4.20053 -29.16211,12.60132 -8.11232,8.40095 -12.16847,18.31281 -12.16846,29.7356 z m -45.5379,42.16589 c 8.25585,10e-6 13.77684,-0.479 16.56298,-1.43701 5.66307,-1.92187 8.49461,-6.24168 8.49463,-12.95947 -2e-5,-4.80173 -1.84792,-10.65817 -5.5437,-17.56934 -3.69582,-6.91109 -7.32057,-13.58344 -10.87427,-20.01709 -3.93457,-7.67864 -5.90185,-13.96575 -5.90185,-18.86133 0,-6.04972 1.89623,-10.58633 5.68872,-13.60986 3.79247,-3.02334 8.80882,-4.53506 15.04907,-4.53516 l 5.18115,0 0,6.9126 c -6.04689,9e-5 -10.17482,0.38388 -12.38378,1.15137 -4.31838,1.53524 -6.47755,4.75057 -6.47754,9.64599 -1e-5,4.99227 1.91893,11.13728 5.75683,18.43506 3.55369,6.33404 7.10594,12.66948 10.65674,19.00635 3.93747,7.67874 5.90622,14.15921 5.90625,19.44141 -3e-5,6.91114 -2.40091,12.28712 -7.20264,16.12793 -4.41506,3.55078 -10.17482,5.32617 -17.27929,5.32617 l -7.6333,0 z m 197.93521,-182.10732 7.05762,0 0,22.1748 18.57568,-22.1748 9.21533,0 -20.30273,23.75683 24.47754,72.29004 -7.77393,0 -24.19189,-72.29004 0,72.29004 -7.05762,0 z m -55.35791,47.94873 c 0,-13.82221 4.58422,-25.26922 13.75268,-34.34107 9.16843,-9.07168 20.52023,-13.60757 34.05542,-13.60766 l 0,6.91259 c -11.42289,9e-5 -21.09451,3.91195 -29.01489,11.7356 -7.92042,7.8238 -11.88062,17.59064 -11.88061,29.30054 -10e-6,11.71292 3.93602,21.50539 11.8081,29.37744 7.87204,7.87208 17.56783,11.80811 29.0874,11.8081 l 0,6.9126 c -13.34183,0 -24.64529,-4.63183 -33.9104,-13.89551 -9.26514,-9.26365 -13.8977,-20.66451 -13.8977,-34.20263 z m -5.56348,0.29004 c -10e-5,13.53519 -4.80039,25.10305 -14.40088,34.70361 -9.60066,9.60059 -21.16852,14.40088 -34.70361,14.40088 -13.53813,0 -25.15506,-4.70434 -34.85083,-14.11304 -9.69581,-9.40867 -14.5437,-20.92892 -14.5437,-34.56079 0,-14.11224 4.84789,-25.96794 14.5437,-35.56714 9.69577,-9.59903 21.59981,-14.39858 35.71216,-14.39868 13.44134,10e-5 24.8422,4.87216 34.20263,14.61621 9.36026,9.74421 14.04043,21.38385 14.04053,34.91895 z m -91.58642,-0.14502 c -10e-6,11.61624 4.12791,21.55227 12.38378,29.8081 8.25583,8.25587 18.2402,12.3838 29.95313,12.38379 11.61615,10e-6 21.57634,-4.05614 29.88061,-12.16846 8.30411,-8.11227 12.45621,-17.92818 12.4563,-29.44775 -9e-5,-12.28705 -4.17636,-22.51092 -12.5288,-30.67163 -8.35262,-8.16056 -18.62409,-12.24088 -30.81446,-12.24097 -11.32914,9e-5 -21.04983,4.20053 -29.16211,12.60132 -8.11232,8.40095 -12.16846,18.3128 -12.16845,29.7356 z m -23.80518,47.95312 0,-65.23242 -17.56494,0 0,65.23242 -7.05762,0 0,-65.23242 -3.4541,0 -2.59277,-7.05762 6.04687,0 0,-23.75683 7.05762,0 0,23.75683 17.56494,0 0,-23.75683 7.05762,0 0,96.04687 z m -65.13574,-7.05762 c 8.25585,10e-6 13.77684,-0.47899 16.56299,-1.43701 5.66306,-1.92186 8.4946,-6.24168 8.49462,-12.95947 -2e-5,-4.80173 -1.84792,-10.65817 -5.5437,-17.56934 -3.69581,-6.91108 -7.32057,-13.58344 -10.87426,-20.01709 -3.93458,-7.67864 -5.90186,-13.96574 -5.90186,-18.86132 0,-6.04973 1.89623,-10.58634 5.68872,-13.60987 3.79247,-3.02334 8.80882,-4.53506 15.04907,-4.53515 l 5.18116,0 0,6.91259 c -6.0469,9e-5 -10.17483,0.38388 -12.38379,1.15137 -4.31837,1.53524 -6.47755,4.75057 -6.47754,9.646 -1e-5,4.99226 1.91893,11.13727 5.75683,18.43506 3.5537,6.33403 7.10594,12.66948 10.65674,19.00634 3.93747,7.67875 5.90622,14.15921 5.90625,19.44141 -3e-5,6.91115 -2.40091,12.28712 -7.20263,16.12793 -4.41506,3.55078 -10.17482,5.32617 -17.2793,5.32617 l -7.6333,0 z"
         id="path3855"
         inkscape:connector-curvature="0" />
    </g>
  </g>
  <g
     style="display:inline;opacity:1"
     inkscape:label="shocksoc"
     inkscape:groupmode="layer"
     id="g3862"
     transform="translate(0,-308.2677)">
    <g
       transform="matrix(2.9241327,0,0,2.9241327,-92.420485,-833.64594)"
       style="font-size:144px;font-style:normal;font-variant:normal;font-weight:normal;font-stretch:normal;line-height:125%;letter-spacing:0px;word-spacing:0px;fill:#000000;fill-opacity:1;stroke:none;font-family:AR BONNIE;-inkscape-font-specification:AR BONNIE"
       id="g3864" />
    <g
       style="font-size:144px;font-style:normal;font-variant:normal;font-weight:normal;font-stretch:normal;line-height:125%;letter-spacing:0px;word-spacing:0px;fill:#000000;fill-opacity:1;stroke:none;font-family:AR BONNIE;-inkscape-font-specification:AR BONNIE"
       id="g3866"
       transform="matrix(2.9241327,0,0,2.9241327,-580.6126,-870.04073)" />
    <g
       style="font-size:144px;font-style:normal;font-variant:normal;font-weight:normal;font-stretch:normal;line-height:125%;letter-spacing:0px;word-spacing:0px;fill:#000000;fill-opacity:1;stroke:none;font-family:AR BONNIE;-inkscape-font-specification:AR BONNIE"
       id="g3868"
       transform="matrix(2.9241327,0,0,2.9241327,-580.6126,-870.04073)" />
    <g
       style="font-size:144px;font-style:normal;font-variant:normal;font-weight:normal;font-stretch:normal;line-height:125%;letter-spacing:0px;word-spacing:0px;fill:#000000;fill-opacity:1;stroke:none;font-family:AR BONNIE;-inkscape-font-specification:AR BONNIE"
       id="g3870"
       transform="matrix(2.9241327,0,0,2.9241327,-580.6126,-870.04073)">
      <path
         inkscape:connector-curvature="0"
         id="path3872"
         d="m 426.05441,578.94208 c 0,-13.82221 4.58422,-25.26922 13.75269,-34.34107 9.16843,-9.07168 20.52022,-13.60757 34.05542,-13.60766 l 0,6.91259 c -11.42289,9e-5 -21.09451,3.91196 -29.01489,11.7356 -7.92043,7.8238 -11.88063,17.59064 -11.88062,29.30054 -1e-5,11.71292 3.93602,21.5054 11.80811,29.37744 7.87204,7.87208 17.56783,11.80811 29.0874,11.8081 l 0,6.9126 c -13.34184,0 -24.64529,-4.63183 -33.9104,-13.89551 -9.26515,-9.26364 -13.89771,-20.66451 -13.89771,-34.20263 z m -54.25593,41.34991 c 11.61615,-1e-5 21.21909,-4.05614 29.52336,-12.16845 8.30411,-8.11228 12.4562,-17.92819 12.4563,-29.44776 -1e-4,-12.28705 -4.17636,-22.51092 -12.52881,-30.67163 -8.35261,-8.16056 -18.62409,-12.24088 -30.81445,-12.24097 -11.32915,9e-5 -21.04984,4.20053 -29.16211,12.60132 -8.11232,8.40095 -12.16847,18.31281 -12.16846,29.7356 -10e-6,11.61624 4.12795,21.55222 12.38379,29.8081 6.0924,6.09243 12.41159,9.57964 20.38663,11.17615 l -0.54294,7.2947 c -9.24446,-1.82031 -17.44325,-6.20113 -24.59638,-13.14247 -9.69578,-9.4087 -14.5437,-20.92892 -14.5437,-34.56079 0,-14.11224 4.84789,-25.96794 14.5437,-35.56714 9.69578,-9.59903 21.59982,-14.39858 35.71216,-14.39868 13.44134,10e-5 24.84221,4.87216 34.20264,14.61621 9.36025,9.74422 14.04042,21.38385 14.04052,34.91895 l 0,-10e-6 c -10e-5,13.53519 -4.80038,25.10305 -14.40087,34.70361 -9.60067,9.60059 -21.16853,14.40088 -34.70362,14.40088 -0.64976,0 -1.2951,-0.0108 -1.93601,-0.0325 z m -88.23207,-0.026 c 8.25585,10e-6 13.77684,-0.479 16.56298,-1.43701 5.66307,-1.92187 8.49461,-6.24168 8.49463,-12.95947 -2e-5,-4.80173 -1.84792,-10.65817 -5.5437,-17.56934 -3.69582,-6.91109 -7.32057,-13.58344 -10.87427,-20.01709 -3.93457,-7.67864 -5.90185,-13.96575 -5.90185,-18.86133 0,-6.04972 1.89623,-10.58633 5.68872,-13.60986 3.79247,-3.02334 8.80882,-4.53506 15.04907,-4.53516 l 5.18115,0 0,6.9126 c -6.04689,9e-5 -10.17482,0.38388 -12.38378,1.15137 -4.31838,1.53524 -6.47755,4.75057 -6.47754,9.64599 -1e-5,4.99227 1.91893,11.13728 5.75683,18.43506 3.55369,6.33404 7.10594,12.66948 10.65674,19.00635 3.93747,7.67874 5.90622,14.15921 5.90625,19.44141 -3e-5,6.91114 -2.40091,12.28712 -7.20264,16.12793 -4.41506,3.55078 -10.17482,5.32617 -17.27929,5.32617 l -7.6333,0 z m 197.93521,-182.10732 7.05762,0 0,22.1748 18.57568,-22.1748 9.21533,0 -20.30273,23.75683 24.47754,72.29004 -7.77393,0 -24.19189,-72.29004 0,72.29004 -7.05762,0 z m -55.35791,47.94873 c 0,-13.82221 4.58422,-25.26922 13.75268,-34.34107 9.16843,-9.07168 20.52023,-13.60757 34.05542,-13.60766 l 0,6.91259 c -11.42289,9e-5 -21.09451,3.91195 -29.01489,11.7356 -7.92042,7.8238 -11.88062,17.59064 -11.88061,29.30054 -10e-6,11.71292 3.93602,21.50539 11.8081,29.37744 7.87204,7.87208 17.56783,11.80811 29.0874,11.8081 l 0,6.9126 c -13.34183,0 -24.64529,-4.63183 -33.9104,-13.89551 -9.26514,-9.26365 -13.8977,-20.66451 -13.8977,-34.20263 z m -55.32049,-42.78772 c -11.32914,9e-5 -21.54868,4.79635 -29.66096,13.19714 -8.11232,8.40095 -12.16846,18.3128 -12.16845,29.7356 -10e-6,11.61624 4.12791,21.55227 12.38378,29.8081 8.25583,8.25587 18.2402,12.3838 29.95313,12.38379 11.61615,10e-6 21.57634,-4.05614 29.88061,-12.16846 8.30411,-8.11227 12.45621,-17.92818 12.4563,-29.44775 -9e-5,-12.28705 -4.17636,-22.51092 -12.5288,-30.67163 -5.755,-5.62267 -12.52696,-10.15256 -20.10384,-11.90122 l 0.26179,-6.68795 c 9.32307,1.82478 18.21822,6.59859 25.24292,13.91119 9.36026,9.74421 14.04043,21.38385 14.04053,34.91895 -10e-5,13.53519 -4.80039,25.10305 -14.40088,34.70361 -9.60066,9.60059 -21.16852,14.40088 -34.70361,14.40088 -13.53813,0 -25.15506,-4.70434 -34.85083,-14.11304 -9.69581,-9.40867 -14.5437,-20.92892 -14.5437,-34.56079 0,-14.11224 4.84789,-25.96794 14.5437,-35.56714 9.69577,-9.59903 22.03124,-14.27484 36.14359,-14.27494 m -67.57987,97.21952 0,-65.23242 -17.56494,0 0,65.23242 -7.05762,0 0,-65.23242 -3.4541,0 -2.59277,-7.05762 6.04687,0 0,-23.75683 7.05762,0 0,23.75683 17.56494,0 0,-23.75683 7.05762,0 0,96.04687 z m -65.13574,-7.05762 c 8.25585,10e-6 13.77684,-0.47899 16.56299,-1.43701 5.66306,-1.92186 8.4946,-6.24168 8.49462,-12.95947 -2e-5,-4.80173 -1.84792,-10.65817 -5.5437,-17.56934 -3.69581,-6.91108 -7.32057,-13.58344 -10.87426,-20.01709 -3.93458,-7.67864 -5.90186,-13.96574 -5.90186,-18.86132 0,-6.04973 1.89623,-10.58634 5.68872,-13.60987 3.79247,-3.02334 8.80882,-4.53506 15.04907,-4.53515 l 5.18116,0 0,6.91259 c -6.0469,9e-5 -10.17483,0.38388 -12.38379,1.15137 -4.31837,1.53524 -6.47755,4.75057 -6.47754,9.646 -1e-5,4.99226 1.91893,11.13727 5.75683,18.43506 3.5537,6.33403 7.10594,12.66948 10.65674,19.00634 3.93747,7.67875 5.90622,14.15921 5.90625,19.44141 -3e-5,6.91115 -2.40091,12.28712 -7.20263,16.12793 -4.41506,3.55078 -10.17482,5.32617 -17.2793,5.32617 l -7.6333,0 z"
         sodipodi:nodetypes="ssccsssccssccccsscsccssscccssscccsscscccccsccccscccsccccccccccscccsssccsscsssssccccccsssssccccccccccccccccccccsscscccccsccccsccc" />
    </g>
  </g>
  <g
     inkscape:groupmode="layer"
     id="layer2"
     inkscape:label="bolt"
     style="display:inline;opacity:1"
     transform="translate(0,-308.2677)">
    <path
       id="path3013"
       style="fill:#000000;fill-opacity:1;stroke:none"
       d="m 537.94826,328.29939 -92.46353,323.45615 c 48.79993,24.70341 108.70326,20.85853 149.49797,-26.07038 l 18.74782,-60.56012 -109.66188,63.86941 z m -66.01237,704.06131 c 3.59357,-3.3674 28.78286,-88.02564 95.18687,-310.80417 C 501.02443,688.55755 452.094,710.07858 417.99741,743.25479 l -20.27076,61.73573 113.26615,-61.64294 z"
       inkscape:connector-curvature="0"
       sodipodi:nodetypes="cccccccccccc" />
  </g>
  <g
     inkscape:label="bolt tips"
     id="g3841"
     inkscape:groupmode="layer"
     style="display:none"
     transform="translate(0,-308.2677)">
    <path
       inkscape:connector-curvature="0"
       d="m 359.33134,658.09877 25.90585,-89.048 c 2.62984,-10.12234 -11.00716,-21.94847 -15.738,-9.39542 z m 24.06527,-250.6063 -29.56613,101.62975 c 0.053,6.32263 18.37413,8.35867 18.85699,2.05428 z"
       style="fill:#000000;fill-opacity:1;stroke:none"
       id="path3843"
       sodipodi:nodetypes="cccccccc" />
  </g>
</svg>
